<svg width="32" height="27" viewBox="0 0 32 27" fill="none" xmlns="http://www.w3.org/2000/svg">
<path d="M1.99777 0H0.285396C0.128428 0 0 0.138068 0 0.306818V26.6932C0 26.8619 0.128428 27 0.285396 27H1.99777C2.15474 27 2.28317 26.8619 2.28317 26.6932V0.306818C2.28317 0.138068 2.15474 0 1.99777 0ZM31.7146 0H30.0022C29.8453 0 29.7168 0.138068 29.7168 0.306818V26.6932C29.7168 26.8619 29.8453 27 30.0022 27H31.7146C31.8716 27 32 26.8619 32 26.6932V0.306818C32 0.138068 31.8716 0 31.7146 0ZM4.85173 22.0909H8.84727C9.00424 22.0909 9.13266 21.9528 9.13266 21.7841V0.306818C9.13266 0.138068 9.00424 0 8.84727 0H4.85173C4.69476 0 4.56633 0.138068 4.56633 0.306818V21.7841C4.56633 21.9528 4.69476 22.0909 4.85173 22.0909ZM16.3032 22.0909H18.0156C18.1726 22.0909 18.301 21.9528 18.301 21.7841V0.306818C18.301 0.138068 18.1726 0 18.0156 0H16.3032C16.1463 0 16.0178 0.138068 16.0178 0.306818V21.7841C16.0178 21.9528 16.1463 22.0909 16.3032 22.0909ZM20.7982 22.0909H27.1483C27.3052 22.0909 27.4337 21.9528 27.4337 21.7841V0.306818C27.4337 0.138068 27.3052 0 27.1483 0H20.7982C20.6412 0 20.5128 0.138068 20.5128 0.306818V21.7841C20.5128 21.9528 20.6412 22.0909 20.7982 22.0909ZM11.7012 22.0909H13.4136C13.5706 22.0909 13.699 21.9528 13.699 21.7841V0.306818C13.699 0.138068 13.5706 0 13.4136 0H11.7012C11.5443 0 11.4158 0.138068 11.4158 0.306818V21.7841C11.4158 21.9528 11.5443 22.0909 11.7012 22.0909ZM8.88294 24.5455H4.8874C4.73043 24.5455 4.60201 24.6835 4.60201 24.8523V26.6932C4.60201 26.8619 4.73043 27 4.8874 27H8.88294C9.03991 27 9.16834 26.8619 9.16834 26.6932V24.8523C9.16834 24.6835 9.03991 24.5455 8.88294 24.5455ZM18.0513 24.5455H16.3389C16.1819 24.5455 16.0535 24.6835 16.0535 24.8523V26.6932C16.0535 26.8619 16.1819 27 16.3389 27H18.0513C18.2083 27 18.3367 26.8619 18.3367 26.6932V24.8523C18.3367 24.6835 18.2083 24.5455 18.0513 24.5455ZM27.1839 24.5455H20.8339C20.6769 24.5455 20.5485 24.6835 20.5485 24.8523V26.6932C20.5485 26.8619 20.6769 27 20.8339 27H27.1839C27.3409 27 27.4693 26.8619 27.4693 26.6932V24.8523C27.4693 24.6835 27.3409 24.5455 27.1839 24.5455ZM13.4493 24.5455H11.7369C11.5799 24.5455 11.4515 24.6835 11.4515 24.8523V26.6932C11.4515 26.8619 11.5799 27 11.7369 27H13.4493C13.6062 27 13.7347 26.8619 13.7347 26.6932V24.8523C13.7347 24.6835 13.6062 24.5455 13.4493 24.5455Z" fill="white"/>
</svg>
