<svg width="39" height="20" viewBox="0 0 39 20" fill="none" xmlns="http://www.w3.org/2000/svg">
<path d="M1.20261 15.3788C1.03144 15.1016 0.798755 14.6582 0.658857 14.3319C-0.16826 12.4116 -0.207854 10.4244 0.490714 8.51678C1.2587 6.42464 2.72579 4.82293 4.62142 4.00743C7.00457 2.98182 9.64034 3.18401 11.9244 4.53931C13.3754 5.37171 14.404 6.65692 15.1851 8.47402L15.2575 8.65074L15.3927 9.00181C15.4144 9.05856 15.4359 9.11337 15.4572 9.16625L1.20261 15.3788ZM5.96246 7.09008C4.27008 7.81742 3.3977 9.405 3.57693 11.2664L10.7461 8.18102C9.51324 6.73202 7.90863 6.25188 5.96246 7.09008ZM14.411 15.6561L11.64 13.8034L11.636 13.8075L11.4875 13.7074C11.0599 14.4016 10.3922 14.9639 9.55007 15.329C7.94757 16.0259 6.46253 15.8468 5.39614 14.9115L5.29808 15.0606C5.29702 15.0589 5.29676 15.0576 5.29491 15.0576L3.47623 17.7786C3.92867 18.0929 4.4132 18.3584 4.92167 18.5705C6.9308 19.405 8.98638 19.3663 11.0115 18.4856C12.4763 17.8508 13.6256 16.8828 14.411 15.656M20.4396 0V15.1275L22.7915 16.0807L21.455 19.199L18.859 18.1179C18.2762 17.8657 17.8797 17.4794 17.5793 17.0436C17.2923 16.5993 17.0775 15.9896 17.0775 15.1687V0.000132159L20.4396 0ZM26.5324 11.2737C26.5337 9.98558 27.1026 8.83036 28.0027 8.04522L25.5897 5.35468C23.9531 6.80118 22.9224 8.91496 22.9205 11.27C22.9179 13.6258 23.9471 15.7417 25.5819 17.1921L27.9921 14.4989C27.0964 13.7107 26.5314 12.5589 26.5324 11.2737ZM30.8196 15.5674C30.3445 15.5661 29.8869 15.4876 29.4603 15.3455L28.3079 18.7717C29.1163 19.0427 29.9632 19.1812 30.8158 19.1817C34.6365 19.1854 37.8267 16.4745 38.5659 12.8708L35.024 12.1475C34.6212 14.1008 32.8916 15.5687 30.8196 15.5674ZM30.8302 3.37393C29.9787 3.37233 29.1326 3.50853 28.3246 3.77726L29.4669 7.20662C29.9055 7.06139 30.3647 6.98733 30.8268 6.98727C32.9036 6.98925 34.6344 8.46584 35.0277 10.4247L38.57 9.70631C37.841 6.09733 34.6538 3.37644 30.8301 3.37406" fill="white"/>
</svg>
