<svg width="250" height="58" viewBox="0 0 250 58" fill="none" xmlns="http://www.w3.org/2000/svg">
<path fill-rule="evenodd" clip-rule="evenodd" d="M61.949 4.1919C58.2073 8.7106 57.837 9.27439 58.1228 10.019C58.2851 10.4424 59.0455 10.4952 63.9332 10.422L69.557 10.3378L72.4673 7.09759C74.068 5.31548 75.918 3.18127 76.5784 2.35486C78.3987 0.0768428 78.2247 0 71.2462 0H65.4203L61.949 4.1919ZM89.205 0.436348C88.7443 0.991194 88.4597 55.389 88.9127 56.2357C89.1772 56.7295 89.8009 56.7807 95.5487 56.7807C101.715 56.7807 101.897 56.7628 102.061 56.1385C102.171 55.7176 102.4 55.5531 102.726 55.6612C106.103 56.7779 107.794 57.0893 110.481 57.0893C113.892 57.0893 116.222 56.5666 119.27 55.1168C124.801 52.4864 128.405 48.4074 130.444 42.4704C131.226 40.1927 131.305 39.566 131.305 35.6422C131.305 30.8795 131.079 29.879 129.038 25.613C127.355 22.0948 123.628 18.4729 119.732 16.5679C113.849 13.6909 108.625 13.4845 102.684 15.8937C102.178 16.0989 102.144 15.6221 102.144 8.37577C102.144 1.04242 102.112 0.62212 101.547 0.319393C101.197 0.132387 98.5914 0 95.2583 0C90.7303 0 89.4929 0.0891832 89.205 0.436348ZM157.597 9.00283C156.351 10.925 153.582 15.3607 151.444 18.8598C149.307 22.3589 146.423 26.9872 145.036 29.1449C143.65 31.3028 142.562 33.1087 142.619 33.1584C142.676 33.2081 143.765 33.1164 145.038 32.9547C152.106 32.057 157.724 36.0561 159.49 43.2416L160.041 45.4841L162.045 42.4146C163.147 40.7266 164.944 37.924 166.038 36.1869C167.132 34.4499 169.739 30.3533 171.83 27.0835C173.921 23.8137 176.126 20.259 176.731 19.1845C177.729 17.4098 177.785 17.186 177.346 16.7466C176.921 16.3214 176.631 16.3115 174.962 16.6658C172.745 17.1364 172.628 17.0512 172.314 14.7405C172.04 12.726 171.669 12.5023 169.876 13.271C167.63 14.2338 167.22 13.9656 166.801 11.2574C166.477 9.16793 166.303 9.05837 164.496 9.80948C163.628 10.1702 162.713 10.3872 162.463 10.2912C162.213 10.1952 161.794 9.33333 161.533 8.37577C160.981 6.35203 160.713 5.79071 160.221 5.62685C160.024 5.56112 158.844 7.08062 157.597 9.00283ZM9.85393 14.1927C6.78036 14.7244 3.22909 17.2536 1.68244 20.0121C0.353335 22.3824 -0.0759126 24.6586 0.0499925 28.673C0.151519 31.9077 0.253045 32.4388 1.11803 34.2536C2.46101 37.0719 4.25115 38.9664 6.72019 40.1825L8.77941 41.1969L16.9648 41.2898C24.1176 41.3712 25.1989 41.4468 25.5359 41.8891C26.1052 42.6358 26.0053 43.7363 25.3045 44.4371C24.7086 45.033 24.2759 45.0543 12.8318 45.0543C6.3113 45.0543 0.756665 45.1385 0.488191 45.2416C0.0691246 45.4024 0 46.1812 0 50.7345C0 54.4496 0.111092 56.1512 0.370308 56.4104C0.64804 56.6881 4.41562 56.7807 15.4265 56.7807C31.3399 56.7807 32.2348 56.7023 35.0263 55.0665C36.8572 53.9935 38.7769 51.8315 39.7588 49.7371C40.5346 48.0818 40.5794 47.7325 40.5723 43.357C40.5646 38.7785 40.5538 38.7059 39.5694 36.6785C38.3011 34.0666 35.6166 31.5062 33.1072 30.515C31.446 29.8589 30.7755 29.8022 23.4529 29.6979C14.8417 29.5753 14.8124 29.5689 14.8124 27.7213C14.8124 27.1455 15.0663 26.6953 15.5814 26.3577C16.2649 25.9099 17.5644 25.8661 27.2307 25.9648C33.2149 26.0259 38.2847 25.9636 38.4967 25.8263C38.7815 25.6417 38.8825 24.1327 38.8825 20.051C38.8825 15.0509 38.8297 14.4973 38.3282 14.2288C37.6577 13.8699 11.9079 13.8372 9.85393 14.1927ZM149.667 14.4655C143.544 16.0662 138.6 20.0211 135.924 25.4587C134.291 28.7752 133.805 31.0609 133.788 35.4879C133.776 38.934 133.869 39.6366 134.67 42.0779C136.898 48.8762 142.763 54.4373 149.53 56.1679C154.242 57.3732 159.589 56.8131 164.016 54.6502C169.712 51.867 173.436 47.4773 175.306 41.3404C176.22 38.3443 176.293 33.18 175.462 30.3962C174.462 27.044 174.562 27.0378 172.142 30.603C169.528 34.4529 162.26 45.9362 160.594 48.8478C159.561 50.6527 159.287 50.9317 158.619 50.8536C157.871 50.7663 157.838 50.6682 157.668 47.9797C157.538 45.9291 157.286 44.7506 156.712 43.5051C155.135 40.0856 152.361 37.4512 148.741 35.9342C147.637 35.4713 146.562 35.3503 143.499 35.3429C140.076 35.3346 139.635 35.2732 139.542 34.7924C139.484 34.4946 140.89 31.995 142.666 29.2378C145.497 24.8413 148.32 20.2735 151.247 15.3524C151.727 14.546 152.019 13.8989 151.896 13.9137C151.773 13.9286 150.77 14.177 149.667 14.4655ZM59.2494 14.8096C55.2575 15.873 52.6478 17.4042 49.5143 20.5213C47.2252 22.7984 46.4935 23.7711 45.4508 25.9216C43.8705 29.1822 43.2015 32.1456 43.2074 35.8573C43.2129 39.4425 43.8122 42.0418 45.3632 45.2086C48.982 52.5981 56.233 57.1066 64.4955 57.1044C68.5013 57.1035 70.5658 56.6011 74.3704 54.7017C79.7596 52.0111 83.8133 46.9904 85.3988 41.0426C86.245 37.8693 86.1024 32.3021 85.0973 29.2418C84.0404 26.0241 81.9179 22.7178 79.3615 20.3062C75.0363 16.226 70.8756 14.472 65.1127 14.2992C62.2922 14.2146 61.089 14.3192 59.2494 14.8096ZM224.037 14.7059C219.629 15.5548 216.251 17.3928 212.779 20.8299C208.596 24.9706 206.649 29.7238 206.649 35.7965C206.649 42.4118 209.307 48.2328 214.232 52.4024C217.971 55.5686 222.406 57.1408 227.598 57.1408C230.545 57.1408 232.718 56.6699 235.457 55.4383C235.767 55.2992 236.024 55.4624 236.228 55.9278C236.531 56.6165 236.624 56.6277 242.821 56.71C247.198 56.7684 249.237 56.6866 249.533 56.441C250.118 55.9552 250.172 15.7662 249.588 15.1827C249.325 14.9198 247.454 14.8124 243.133 14.8124C236.818 14.8124 236.072 14.8972 236.072 15.6169C236.072 16.1825 235.913 16.1658 233.747 15.3734C232.321 14.8516 231.106 14.684 228.357 14.6287C226.405 14.5896 224.461 14.6241 224.037 14.7059ZM179.97 15.1827C179.435 15.7181 179.435 55.875 179.97 56.4104C180.493 56.9335 192.285 56.9335 192.808 56.4104C193.079 56.1385 193.178 53.5192 193.178 46.5472C193.178 37.6913 193.221 36.9389 193.819 35.3404C194.609 33.23 195.601 32.0182 197.408 30.9594C198.932 30.066 201.642 29.3285 203.428 29.3211C204.229 29.3177 204.667 29.1421 204.883 28.7381C205.062 28.4039 205.186 25.5402 205.177 21.9457C205.159 14.5575 205.21 14.6815 202.325 14.9957C199.685 15.2836 196.047 16.2399 194.804 16.9734C193.388 17.8088 193.178 17.7566 193.178 16.5713C193.178 16.0112 193.011 15.3863 192.808 15.1827C192.285 14.6596 180.493 14.6596 179.97 15.1827ZM160.737 17.3582C166.323 20.7287 168.79 22.2982 169.115 22.6895C169.639 23.3211 169.186 24.379 168.393 24.3774C168.022 24.3768 166.989 23.9254 166.097 23.3745C156.965 17.7369 156.407 17.3126 157.068 16.5155C157.677 15.7816 158.398 15.9474 160.737 17.3582ZM158.93 26.0407C164.984 29.6726 165.29 29.921 164.808 30.8214C164.615 31.1816 164.24 31.4763 163.974 31.4763C163.503 31.4763 159.678 29.2492 154.835 26.1555C152.381 24.5879 151.895 23.8028 152.984 23.1696C153.281 22.9968 153.596 22.8857 153.684 22.9228C153.773 22.9598 156.134 24.3629 158.93 26.0407ZM68.0569 28.5036C69.8168 29.3232 71.1009 30.6891 71.9878 32.685C72.7225 34.3384 72.6154 37.8308 71.781 39.4385C70.996 40.9512 68.9623 42.7871 67.4197 43.3762C64.697 44.4161 60.5474 43.3814 58.7057 41.2034C56.7869 38.934 56.1416 35.2114 57.2226 32.6449C58.9615 28.516 63.9712 26.6012 68.0569 28.5036ZM113.598 28.6351C118.277 31.0794 119.36 37.1025 115.827 41.0321C114.013 43.05 111.893 43.944 109.398 43.7437C105.136 43.4015 102.209 40.513 101.895 36.339C101.433 30.2138 108.152 25.7905 113.598 28.6351ZM231.604 28.5008C236.679 30.864 237.969 37.0167 234.254 41.1386C230.47 45.3369 223.631 44.4513 221.133 39.4395C219.685 36.5335 220.143 33.0988 222.305 30.6421C224.749 27.8658 228.423 27.0196 231.604 28.5008Z" fill="url(#paint0_linear_2114_1463)"/>
<defs>
<linearGradient id="paint0_linear_2114_1463" x1="0" y1="28.5704" x2="250" y2="28.5704" gradientUnits="userSpaceOnUse">
<stop stop-color="#924CC9"/>
<stop offset="1" stop-color="#42386C"/>
</linearGradient>
</defs>
</svg>
