<svg width="31" height="19" viewBox="0 0 31 19" fill="none" xmlns="http://www.w3.org/2000/svg">
<path d="M14.6528 17.2278L14.8843 17.4133C13.3152 18.4531 11.4693 19.0055 9.58221 19C4.28879 19 0 14.7512 0 9.5C0 4.25364 4.28879 4.74597e-05 9.57639 4.74597e-05C11.5401 4.74597e-05 13.3663 0.580521 14.8805 1.58097C14.8062 1.64276 14.735 1.70819 14.6673 1.77702C12.4033 3.71834 11.1013 6.53709 11.1013 9.5C11.1013 12.4629 12.3984 15.2817 14.6538 17.2278H14.6528ZM21.4246 4.74597e-05C19.5377 -0.00588441 17.6916 0.544364 16.1205 1.58097C16.197 1.64632 16.2726 1.71167 16.3336 1.77702C17.4517 2.73519 18.3489 3.92081 18.9642 5.25339C19.5795 6.58596 19.8986 8.03428 19.8997 9.5C19.8997 12.4591 18.6025 15.2769 16.3472 17.2278L16.1157 17.4133C17.6848 18.4531 19.5307 19.0055 21.4178 19C26.7112 19 31 14.7512 31 9.5C31 4.25364 26.7122 4.74597e-05 21.4246 4.74597e-05ZM15.5005 2.03747C14.3599 2.92467 13.4378 4.05773 12.804 5.35082C12.1702 6.64391 11.8414 8.06312 11.8424 9.50096C11.8406 10.9396 12.1691 12.3598 12.8029 13.6538C13.4368 14.9477 14.3593 16.0816 15.5005 16.9693C15.6274 16.8741 15.7436 16.7742 15.8638 16.6694C16.8992 15.7789 17.7293 14.6779 18.2978 13.441C18.8663 12.2041 19.1599 10.8604 19.1586 9.50096C19.1596 8.06312 18.8308 6.64391 18.197 5.35082C17.5632 4.05773 16.6411 2.92467 15.5005 2.03747Z" fill="white"/>
</svg>
