<svg width="26" height="26" viewBox="0 0 26 26" fill="none" xmlns="http://www.w3.org/2000/svg">
<path d="M17.4826 18.8737L13.5694 14.9605C13.4264 14.8175 13.2574 14.7915 13.1664 14.7915C13.0754 14.7915 12.9064 14.8175 12.7634 14.9605L8.83712 18.8867C8.39509 19.3287 7.70605 20.0438 5.40491 20.0438L10.2282 24.8541C10.9595 25.5845 11.9508 25.9947 12.9844 25.9947C14.0179 25.9947 15.0092 25.5845 15.7405 24.8541L20.5768 20.0308C19.3938 20.0308 18.4057 19.7968 17.4826 18.8737ZM8.83712 7.108L12.7634 11.0342C12.8674 11.1382 13.0234 11.2032 13.1664 11.2032C13.3094 11.2032 13.4654 11.1382 13.5694 11.0342L17.4566 7.147C18.3797 6.18494 19.4328 5.96393 20.6158 5.96393L15.7795 1.14064C15.0482 0.410251 14.0569 0 13.0234 0C11.9898 0 10.9985 0.410251 10.2672 1.14064L5.44391 5.95093C7.73205 5.95093 8.43409 6.70498 8.83712 7.108Z" fill="white"/>
<path d="M24.8411 10.202L21.9159 7.26379H20.2778C19.5758 7.26379 18.8737 7.54981 18.3927 8.05684L14.4925 11.9571C14.1284 12.3211 13.6474 12.5031 13.1664 12.5031C12.671 12.4961 12.1969 12.3009 11.8403 11.9571L7.91405 8.01784C7.42002 7.52381 6.74398 7.23779 6.02894 7.23779H4.11782L1.14064 10.228C0.410251 10.9593 0 11.9506 0 12.9841C0 14.0177 0.410251 15.009 1.14064 15.7403L4.11782 18.7305H6.04194C6.74398 18.7305 7.42002 18.4445 7.92705 17.9504L11.8533 14.0242C12.2173 13.6602 12.6983 13.4782 13.1794 13.4782C13.6604 13.4782 14.1414 13.6602 14.5055 14.0242L18.4187 17.9374C18.9127 18.4315 19.5888 18.7175 20.3038 18.7175H21.9419L24.8671 15.7793C25.6012 15.0352 26.0106 14.0305 26.0057 12.9853C26.0008 11.94 25.5821 10.9392 24.8411 10.202Z" fill="white"/>
</svg>
