<svg width="158" height="36" viewBox="0 0 158 36" fill="none" xmlns="http://www.w3.org/2000/svg">
<path fill-rule="evenodd" clip-rule="evenodd" d="M39.1518 2.64099C36.787 5.48787 36.553 5.84307 36.7336 6.31221C36.8362 6.57895 37.3167 6.6122 40.4058 6.56612L43.96 6.51304L45.7993 4.47164C46.811 3.34887 47.9802 2.00427 48.3975 1.48361C49.548 0.0484127 49.438 0 45.0276 0H41.3457L39.1518 2.64099ZM56.3775 0.274909C56.0864 0.624474 55.9065 34.8963 56.1929 35.4298C56.36 35.7408 56.7542 35.7731 60.3868 35.7731C64.284 35.7731 64.3991 35.7618 64.5023 35.3685C64.5719 35.1033 64.7166 34.9997 64.923 35.0678C67.0574 35.7714 68.1259 35.9675 69.824 35.9675C71.9799 35.9675 73.4524 35.6382 75.3789 34.7248C78.8742 33.0676 81.1521 30.4977 82.4407 26.7573C82.9351 25.3223 82.985 24.9274 82.985 22.4554C82.985 19.4547 82.8421 18.8244 81.5519 16.1368C80.4881 13.9202 78.1331 11.6383 75.6708 10.4382C71.9528 8.6256 68.6507 8.49553 64.896 10.0134C64.5764 10.1426 64.5547 9.84227 64.5547 5.27692C64.5547 0.656747 64.535 0.39195 64.1776 0.201224C63.9566 0.0834065 62.3098 0 60.2032 0C57.3416 0 56.5595 0.0561874 56.3775 0.274909ZM99.6015 5.67199C98.8138 6.88302 97.064 9.6776 95.7128 11.8821C94.3619 14.0866 92.5395 17.0025 91.663 18.3619C90.7866 19.7215 90.0991 20.8592 90.1354 20.8905C90.1715 20.9218 90.8593 20.8641 91.6638 20.7622C96.1308 20.1966 99.6817 22.7161 100.798 27.2432L101.146 28.656L102.412 26.7221C103.109 25.6587 104.245 23.8929 104.936 22.7986C105.628 21.7042 107.275 19.1233 108.596 17.0632C109.918 15.0031 111.312 12.7636 111.694 12.0866C112.325 10.9685 112.36 10.8276 112.083 10.5507C111.814 10.2828 111.631 10.2766 110.576 10.4998C109.175 10.7963 109.101 10.7426 108.902 9.28682C108.729 8.01765 108.495 7.8767 107.361 8.36099C105.942 8.96758 105.683 8.79863 105.418 7.09241C105.214 5.776 105.104 5.70698 103.962 6.18019C103.413 6.40747 102.835 6.54415 102.676 6.48368C102.518 6.42322 102.254 5.88021 102.089 5.27692C101.74 4.00192 101.571 3.64828 101.259 3.54504C101.135 3.50363 100.389 4.46095 99.6015 5.67199ZM6.22768 8.94172C4.28519 9.27671 2.04079 10.8702 1.0633 12.6081C0.223308 14.1014 -0.0479767 15.5354 0.0315953 18.0646C0.0957599 20.1025 0.159924 20.4371 0.706592 21.5805C1.55536 23.3561 2.68673 24.5497 4.24716 25.3159L5.54859 25.955L10.7217 26.0135C15.2423 26.0648 15.9257 26.1124 16.1387 26.391C16.4985 26.8615 16.4353 27.5548 15.9924 27.9964C15.6158 28.3718 15.3424 28.3852 8.10971 28.3852C3.98874 28.3852 0.478212 28.4383 0.308537 28.5032C0.0436867 28.6045 0 29.0952 0 31.9639C0 34.3045 0.07021 35.3765 0.234035 35.5398C0.409561 35.7148 2.79067 35.7731 9.74952 35.7731C19.8068 35.7731 20.3724 35.7237 22.1366 34.6931C23.2937 34.0171 24.507 32.655 25.1276 31.3355C25.6179 30.2926 25.6462 30.0726 25.6417 27.3159C25.6368 24.4313 25.63 24.3856 25.0078 23.1083C24.2063 21.4627 22.5097 19.8496 20.9237 19.2251C19.8739 18.8118 19.4501 18.776 14.8222 18.7103C9.37994 18.6331 9.36141 18.629 9.36141 17.4651C9.36141 17.1023 9.52192 16.8186 9.84743 16.6059C10.2794 16.3238 11.1007 16.2962 17.2098 16.3584C20.9918 16.3969 24.1959 16.3576 24.3299 16.2711C24.5099 16.1549 24.5737 15.2042 24.5737 12.6326C24.5737 9.48241 24.5404 9.13362 24.2234 8.96447C23.7996 8.73836 7.5258 8.71775 6.22768 8.94172ZM94.5893 9.11359C90.7201 10.122 87.5953 12.6137 85.9038 16.0396C84.8721 18.129 84.5646 19.5691 84.5542 22.3582C84.5462 24.5293 84.6055 24.972 85.1112 26.51C86.5195 30.7931 90.2261 34.2967 94.5027 35.387C97.481 36.1464 100.86 35.7935 103.658 34.4308C107.258 32.6774 109.612 29.9118 110.794 26.0454C111.371 24.1577 111.417 20.9041 110.892 19.1503C110.26 17.0383 110.323 17.0344 108.794 19.2805C107.142 21.7061 102.549 28.9408 101.496 30.7752C100.843 31.9123 100.669 32.0881 100.247 32.0389C99.7743 31.9839 99.7536 31.9221 99.646 30.2283C99.5639 28.9364 99.4047 28.1939 99.0418 27.4092C98.0452 25.2548 96.2923 23.5951 94.0042 22.6393C93.3064 22.3477 92.6275 22.2715 90.6914 22.2668C88.5281 22.2616 88.2491 22.2229 88.1904 21.92C88.1541 21.7324 89.0426 20.1576 90.1648 18.4204C91.9542 15.6505 93.7383 12.7728 95.5884 9.67235C95.8915 9.16433 96.0758 8.75664 95.9982 8.76597C95.9205 8.7753 95.2865 8.93181 94.5893 9.11359ZM37.4456 9.33037C34.9227 10.0003 33.2734 10.965 31.2931 12.9289C29.8463 14.3635 29.3839 14.9763 28.7249 16.3312C27.7262 18.3854 27.3033 20.2524 27.307 22.5909C27.3106 24.8497 27.6893 26.4873 28.6695 28.4824C30.9566 33.138 35.5392 35.9784 40.7612 35.9771C43.2928 35.9765 44.5976 35.66 47.0021 34.4633C50.4081 32.7682 52.97 29.605 53.972 25.8577C54.5068 23.8585 54.4167 20.351 53.7815 18.423C53.1135 16.3958 51.7721 14.3127 50.1565 12.7934C47.423 10.2228 44.7934 9.11767 41.1512 9.0088C39.3686 8.95553 38.6082 9.02143 37.4456 9.33037ZM141.591 9.26504C138.806 9.79989 136.67 10.9578 134.476 13.1233C131.833 15.732 130.602 18.7266 130.602 22.5526C130.602 26.7204 132.282 30.3877 135.395 33.0147C137.758 35.0094 140.56 36 143.842 36C145.704 36 147.078 35.7033 148.809 34.9274C149.005 34.8397 149.167 34.9426 149.296 35.2357C149.487 35.6697 149.546 35.6767 153.463 35.7286C156.229 35.7653 157.518 35.7138 157.705 35.5591C158.075 35.253 158.109 9.93307 157.74 9.56542C157.574 9.39978 156.391 9.33212 153.66 9.33212C149.669 9.33212 149.198 9.38558 149.198 9.83897C149.198 10.1953 149.097 10.1848 147.728 9.68557C146.827 9.35681 146.059 9.25124 144.322 9.21644C143.088 9.19175 141.86 9.21352 141.591 9.26504ZM113.741 9.56542C113.403 9.90274 113.403 35.2025 113.741 35.5398C114.072 35.8694 121.524 35.8694 121.854 35.5398C122.026 35.3685 122.088 33.7183 122.088 29.3258C122.088 23.7464 122.116 23.2724 122.494 22.2653C122.993 20.9356 123.62 20.1721 124.762 19.5051C125.725 18.9423 127.438 18.4776 128.566 18.4729C129.073 18.4708 129.35 18.3602 129.486 18.1057C129.599 17.8951 129.678 16.0909 129.672 13.8263C129.66 9.17153 129.693 9.24968 127.869 9.4476C126.201 9.62899 123.902 10.2315 123.116 10.6936C122.221 11.2199 122.088 11.1871 122.088 10.4403C122.088 10.0874 121.983 9.69374 121.854 9.56542C121.524 9.23588 114.072 9.23588 113.741 9.56542ZM101.586 10.9361C105.116 13.0595 106.675 14.0483 106.88 14.2949C107.212 14.6928 106.926 15.3593 106.424 15.3583C106.19 15.3579 105.537 15.0735 104.973 14.7265C99.2021 11.1746 98.8489 10.9073 99.2669 10.4051C99.6518 9.94279 100.108 10.0472 101.586 10.9361ZM100.444 16.4062C104.27 18.6944 104.463 18.8509 104.158 19.4182C104.037 19.6451 103.8 19.8307 103.631 19.8307C103.334 19.8307 100.917 18.4276 97.856 16.4786C96.3049 15.4909 95.9974 14.9963 96.6858 14.5974C96.8735 14.4885 97.0728 14.4185 97.1286 14.4418C97.1845 14.4652 98.6765 15.3492 100.444 16.4062ZM43.012 17.9579C44.1242 18.4743 44.9357 19.3348 45.4963 20.5923C45.9606 21.634 45.893 23.8342 45.3656 24.8472C44.8694 25.8002 43.5842 26.9568 42.6092 27.3279C40.8885 27.9831 38.2659 27.3312 37.102 25.959C35.8893 24.5293 35.4815 22.184 36.1647 20.567C37.2637 17.9657 40.4298 16.7593 43.012 17.9579ZM71.7938 18.0407C74.7509 19.5807 75.4352 23.3754 73.2025 25.8511C72.056 27.1224 70.7163 27.6857 69.1393 27.5595C66.4459 27.3439 64.5963 25.5241 64.3975 22.8944C64.1056 19.0354 68.3523 16.2486 71.7938 18.0407ZM146.374 17.9562C149.581 19.445 150.397 23.3214 148.049 25.9182C145.657 28.5633 141.335 28.0053 139.756 24.8477C138.841 23.0169 139.13 20.853 140.497 19.3052C142.041 17.556 144.364 17.0229 146.374 17.9562Z" fill="white"/>
</svg>
