<svg width="158" height="58" viewBox="0 0 158 58" fill="none" xmlns="http://www.w3.org/2000/svg">
<path fill-rule="evenodd" clip-rule="evenodd" d="M39.1518 2.64099C36.787 5.48787 36.553 5.84307 36.7336 6.31221C36.8362 6.57895 37.3167 6.6122 40.4058 6.56612L43.96 6.51304L45.7993 4.47164C46.811 3.34887 47.9802 2.00427 48.3975 1.48361C49.548 0.0484127 49.438 0 45.0276 0H41.3457L39.1518 2.64099ZM56.3775 0.274909C56.0864 0.624474 55.9065 34.8963 56.1929 35.4298C56.36 35.7408 56.7542 35.7731 60.3868 35.7731C64.284 35.7731 64.3991 35.7618 64.5023 35.3685C64.5719 35.1033 64.7166 34.9997 64.923 35.0678C67.0574 35.7714 68.1259 35.9675 69.824 35.9675C71.9799 35.9675 73.4524 35.6382 75.3789 34.7248C78.8742 33.0676 81.1521 30.4977 82.4407 26.7573C82.9351 25.3223 82.985 24.9274 82.985 22.4554C82.985 19.4547 82.8421 18.8244 81.5519 16.1368C80.4881 13.9202 78.1331 11.6383 75.6708 10.4382C71.9528 8.6256 68.6507 8.49553 64.896 10.0134C64.5764 10.1426 64.5547 9.84227 64.5547 5.27692C64.5547 0.656747 64.535 0.39195 64.1776 0.201224C63.9566 0.0834065 62.3098 0 60.2032 0C57.3416 0 56.5595 0.0561874 56.3775 0.274909ZM99.6015 5.67199C98.8138 6.88302 97.064 9.6776 95.7128 11.8821C94.3619 14.0866 92.5395 17.0025 91.663 18.3619C90.7866 19.7215 90.0991 20.8592 90.1354 20.8905C90.1715 20.9218 90.8593 20.8641 91.6638 20.7622C96.1308 20.1966 99.6817 22.7161 100.798 27.2432L101.146 28.656L102.412 26.7221C103.109 25.6587 104.245 23.8929 104.936 22.7986C105.628 21.7042 107.275 19.1233 108.596 17.0632C109.918 15.0031 111.312 12.7636 111.694 12.0866C112.325 10.9685 112.36 10.8276 112.083 10.5507C111.814 10.2828 111.631 10.2766 110.576 10.4998C109.175 10.7963 109.101 10.7426 108.902 9.28682C108.729 8.01765 108.495 7.8767 107.361 8.36099C105.942 8.96758 105.683 8.79863 105.418 7.09241C105.214 5.776 105.104 5.70698 103.962 6.18019C103.413 6.40747 102.835 6.54415 102.676 6.48368C102.518 6.42322 102.254 5.88021 102.089 5.27692C101.74 4.00192 101.571 3.64828 101.259 3.54504C101.135 3.50363 100.389 4.46095 99.6015 5.67199ZM6.22768 8.94172C4.28519 9.27671 2.04079 10.8702 1.0633 12.6081C0.223308 14.1014 -0.0479767 15.5354 0.0315953 18.0646C0.0957599 20.1025 0.159924 20.4371 0.706592 21.5805C1.55536 23.3561 2.68673 24.5497 4.24716 25.3159L5.54859 25.955L10.7217 26.0135C15.2423 26.0648 15.9257 26.1124 16.1387 26.391C16.4985 26.8615 16.4353 27.5548 15.9924 27.9964C15.6158 28.3718 15.3424 28.3852 8.10971 28.3852C3.98874 28.3852 0.478212 28.4383 0.308537 28.5032C0.0436867 28.6045 0 29.0952 0 31.9639C0 34.3045 0.07021 35.3765 0.234035 35.5398C0.409561 35.7148 2.79067 35.7731 9.74952 35.7731C19.8068 35.7731 20.3724 35.7237 22.1366 34.6931C23.2937 34.0171 24.507 32.655 25.1276 31.3355C25.6179 30.2926 25.6462 30.0726 25.6417 27.3159C25.6368 24.4313 25.63 24.3856 25.0078 23.1083C24.2063 21.4627 22.5097 19.8496 20.9237 19.2251C19.8739 18.8118 19.4501 18.776 14.8222 18.7103C9.37994 18.6331 9.36141 18.629 9.36141 17.4651C9.36141 17.1023 9.52192 16.8186 9.84743 16.6059C10.2794 16.3238 11.1007 16.2962 17.2098 16.3584C20.9918 16.3969 24.1959 16.3576 24.3299 16.2711C24.5099 16.1549 24.5737 15.2042 24.5737 12.6326C24.5737 9.48241 24.5404 9.13362 24.2234 8.96447C23.7996 8.73836 7.5258 8.71775 6.22768 8.94172ZM94.5893 9.11359C90.7201 10.122 87.5953 12.6137 85.9038 16.0396C84.8721 18.129 84.5646 19.5691 84.5542 22.3582C84.5462 24.5293 84.6055 24.972 85.1112 26.51C86.5195 30.7931 90.2261 34.2967 94.5027 35.387C97.481 36.1464 100.86 35.7935 103.658 34.4308C107.258 32.6774 109.612 29.9118 110.794 26.0454C111.371 24.1577 111.417 20.9041 110.892 19.1503C110.26 17.0383 110.323 17.0344 108.794 19.2805C107.142 21.7061 102.549 28.9408 101.496 30.7752C100.843 31.9123 100.669 32.0881 100.247 32.0389C99.7743 31.9839 99.7536 31.9221 99.646 30.2283C99.5639 28.9364 99.4047 28.1939 99.0418 27.4092C98.0452 25.2548 96.2923 23.5951 94.0042 22.6393C93.3064 22.3477 92.6275 22.2715 90.6914 22.2668C88.5281 22.2616 88.2491 22.2229 88.1904 21.92C88.1541 21.7324 89.0426 20.1576 90.1648 18.4204C91.9542 15.6505 93.7383 12.7728 95.5884 9.67235C95.8915 9.16433 96.0758 8.75664 95.9982 8.76597C95.9205 8.7753 95.2865 8.93181 94.5893 9.11359ZM37.4456 9.33037C34.9227 10.0003 33.2734 10.965 31.2931 12.9289C29.8463 14.3635 29.3839 14.9763 28.7249 16.3312C27.7262 18.3854 27.3033 20.2524 27.307 22.5909C27.3106 24.8497 27.6893 26.4873 28.6695 28.4824C30.9566 33.138 35.5392 35.9784 40.7612 35.9771C43.2928 35.9765 44.5976 35.66 47.0021 34.4633C50.4081 32.7682 52.97 29.605 53.972 25.8577C54.5068 23.8585 54.4167 20.351 53.7815 18.423C53.1135 16.3958 51.7721 14.3127 50.1565 12.7934C47.423 10.2228 44.7934 9.11767 41.1512 9.0088C39.3686 8.95553 38.6082 9.02143 37.4456 9.33037ZM141.591 9.26504C138.806 9.79989 136.67 10.9578 134.476 13.1233C131.833 15.732 130.602 18.7266 130.602 22.5526C130.602 26.7204 132.282 30.3877 135.395 33.0147C137.758 35.0094 140.56 36 143.842 36C145.704 36 147.078 35.7033 148.809 34.9274C149.005 34.8397 149.167 34.9426 149.296 35.2357C149.487 35.6697 149.546 35.6767 153.463 35.7286C156.229 35.7653 157.518 35.7138 157.705 35.5591C158.075 35.253 158.109 9.93307 157.74 9.56542C157.574 9.39978 156.391 9.33212 153.66 9.33212C149.669 9.33212 149.198 9.38558 149.198 9.83897C149.198 10.1953 149.097 10.1848 147.728 9.68557C146.827 9.35681 146.059 9.25124 144.322 9.21644C143.088 9.19175 141.86 9.21352 141.591 9.26504ZM113.741 9.56542C113.403 9.90274 113.403 35.2025 113.741 35.5398C114.072 35.8694 121.524 35.8694 121.854 35.5398C122.026 35.3685 122.088 33.7183 122.088 29.3258C122.088 23.7464 122.116 23.2724 122.494 22.2653C122.993 20.9356 123.62 20.1721 124.762 19.5051C125.725 18.9423 127.438 18.4776 128.566 18.4729C129.073 18.4708 129.35 18.3602 129.486 18.1057C129.599 17.8951 129.678 16.0909 129.672 13.8263C129.66 9.17153 129.693 9.24968 127.869 9.4476C126.201 9.62899 123.902 10.2315 123.116 10.6936C122.221 11.2199 122.088 11.1871 122.088 10.4403C122.088 10.0874 121.983 9.69374 121.854 9.56542C121.524 9.23588 114.072 9.23588 113.741 9.56542ZM101.586 10.9361C105.116 13.0595 106.675 14.0483 106.88 14.2949C107.212 14.6928 106.926 15.3593 106.424 15.3583C106.19 15.3579 105.537 15.0735 104.973 14.7265C99.2021 11.1746 98.8489 10.9073 99.2669 10.4051C99.6518 9.94279 100.108 10.0472 101.586 10.9361ZM100.444 16.4062C104.27 18.6944 104.463 18.8509 104.158 19.4182C104.037 19.6451 103.8 19.8307 103.631 19.8307C103.334 19.8307 100.917 18.4276 97.856 16.4786C96.3049 15.4909 95.9974 14.9963 96.6858 14.5974C96.8735 14.4885 97.0728 14.4185 97.1286 14.4418C97.1845 14.4652 98.6765 15.3492 100.444 16.4062ZM43.012 17.9579C44.1242 18.4743 44.9357 19.3348 45.4963 20.5923C45.9606 21.634 45.893 23.8342 45.3656 24.8472C44.8694 25.8002 43.5842 26.9568 42.6092 27.3279C40.8885 27.9831 38.2659 27.3312 37.102 25.959C35.8893 24.5293 35.4815 22.184 36.1647 20.567C37.2637 17.9657 40.4298 16.7593 43.012 17.9579ZM71.7938 18.0407C74.7509 19.5807 75.4352 23.3754 73.2025 25.8511C72.056 27.1224 70.7163 27.6857 69.1393 27.5595C66.4459 27.3439 64.5963 25.5241 64.3975 22.8944C64.1056 19.0354 68.3523 16.2486 71.7938 18.0407ZM146.374 17.9562C149.581 19.445 150.397 23.3214 148.049 25.9182C145.657 28.5633 141.335 28.0053 139.756 24.8477C138.841 23.0169 139.13 20.853 140.497 19.3052C142.041 17.556 144.364 17.0229 146.374 17.9562Z" fill="white"/>
<path d="M4.62354 54.4252C3.99031 54.4252 3.44554 54.3135 2.98924 54.0902C2.54225 53.8576 2.1977 53.5273 1.95558 53.0993C1.72277 52.662 1.60171 52.1364 1.5924 51.5223C1.5924 50.6198 1.75536 49.829 2.08129 49.1498C2.40722 48.4613 2.86818 47.9263 3.46417 47.5448C4.06015 47.154 4.76322 46.9587 5.57339 46.9587C6.20663 46.9587 6.76071 47.0843 7.23564 47.3355C7.71987 47.5774 8.09702 47.9309 8.36708 48.3961C8.64644 48.8613 8.78613 49.4149 8.78613 50.0569C8.78613 50.6896 8.68369 51.2711 8.47882 51.8014C8.27395 52.3317 7.98061 52.7923 7.59881 53.1831C7.22632 53.5738 6.78865 53.8809 6.28579 54.1042C5.78292 54.3182 5.22884 54.4252 4.62354 54.4252ZM0 57.0628L1.99749 47.0284H2.94734L2.52828 49.1358L2.1232 50.6012L1.96955 52.1364L0.991756 57.0628H0ZM4.60957 53.5459C5.22418 53.5459 5.76895 53.4017 6.24388 53.1133C6.7188 52.8156 7.09129 52.4062 7.36135 51.8851C7.64072 51.3641 7.7804 50.7733 7.7804 50.1127C7.7804 49.387 7.57088 48.8241 7.15182 48.424C6.73277 48.024 6.13679 47.8239 5.36387 47.8239C4.75857 47.8239 4.2138 47.9728 3.72956 48.2705C3.25464 48.5683 2.87749 48.9776 2.59812 49.4987C2.32807 50.0104 2.19304 50.6012 2.19304 51.2711C2.19304 51.9875 2.40257 52.5457 2.82162 52.9458C3.24067 53.3459 3.83666 53.5459 4.60957 53.5459ZM13.0325 54.4252C12.3527 54.4252 11.7614 54.2995 11.2585 54.0483C10.765 53.7878 10.3785 53.425 10.0992 52.9598C9.8291 52.4946 9.69407 51.9456 9.69407 51.3129C9.69407 50.4756 9.87566 49.7313 10.2388 49.08C10.602 48.4194 11.1049 47.903 11.7474 47.5309C12.39 47.1494 13.121 46.9587 13.9405 46.9587C14.6203 46.9587 15.2069 47.0843 15.7005 47.3355C16.2034 47.5867 16.5898 47.9449 16.8599 48.4101C17.1392 48.8753 17.2789 49.4242 17.2789 50.0569C17.2789 50.8943 17.0973 51.6432 16.7341 52.3038C16.371 52.9551 15.8681 53.4715 15.2256 53.853C14.5923 54.2344 13.8613 54.4252 13.0325 54.4252ZM13.1024 53.5459C13.717 53.5459 14.2617 53.4017 14.7367 53.1133C15.2209 52.8156 15.598 52.4062 15.8681 51.8851C16.1475 51.3641 16.2872 50.7733 16.2872 50.1127C16.2872 49.387 16.073 48.8241 15.6446 48.424C15.2256 48.024 14.6342 47.8239 13.8706 47.8239C13.2653 47.8239 12.7206 47.9728 12.2363 48.2705C11.7521 48.5683 11.3703 48.9776 11.0909 49.4987C10.8209 50.0104 10.6858 50.6012 10.6858 51.2711C10.6858 51.9875 10.8954 52.5457 11.3144 52.9458C11.7428 53.3459 12.3388 53.5459 13.1024 53.5459ZM19.6466 54.3554L18.2078 47.0284H19.1158L20.4148 53.825H19.9678L23.851 47.0284H24.6891L26.0301 53.825H25.5831L29.4105 47.0284H30.3743L26.2257 54.3554H25.2619L23.9488 47.9635H24.2561L20.5964 54.3554H19.6466ZM33.2448 54.4252C32.5464 54.4252 31.9364 54.2995 31.4149 54.0483C30.9028 53.7878 30.507 53.425 30.2276 52.9598C29.9576 52.4946 29.8225 51.941 29.8225 51.299C29.8225 50.4616 29.9995 49.7173 30.3533 49.066C30.7072 48.4147 31.1914 47.903 31.8061 47.5309C32.4207 47.1494 33.1144 46.9587 33.8873 46.9587C34.5392 46.9587 35.1026 47.0843 35.5775 47.3355C36.0524 47.5774 36.4203 47.9309 36.681 48.3961C36.9511 48.8613 37.0861 49.4196 37.0861 50.0709C37.0861 50.2197 37.0768 50.3732 37.0582 50.5314C37.0395 50.6803 37.0163 50.8245 36.9883 50.964H30.5489L30.6746 50.2244H36.5274L36.1223 50.5035C36.2154 49.9173 36.1735 49.4242 35.9966 49.0242C35.8196 48.6241 35.5449 48.3217 35.1724 48.117C34.8093 47.903 34.3716 47.796 33.8594 47.796C33.2634 47.796 32.7326 47.9449 32.267 48.2426C31.8014 48.531 31.4382 48.9358 31.1775 49.4568C30.9167 49.9685 30.7864 50.5686 30.7864 51.2571C30.7864 51.9921 30.9959 52.5597 31.4149 52.9598C31.8433 53.3505 32.4812 53.5459 33.3286 53.5459C33.8222 53.5459 34.2785 53.4668 34.6975 53.3087C35.1166 53.1412 35.4611 52.9132 35.7312 52.6248L36.1782 53.3366C35.8336 53.6808 35.4006 53.9506 34.8791 54.146C34.3669 54.3321 33.8222 54.4252 33.2448 54.4252ZM38.074 54.3554L39.5267 47.0284H40.4765L40.0575 49.1916L39.9458 48.8148C40.2717 48.1728 40.7 47.703 41.2308 47.4052C41.7709 47.1075 42.4414 46.9587 43.2423 46.9587L43.0607 47.9216C43.0141 47.9216 42.9676 47.9216 42.921 47.9216C42.8838 47.9123 42.8372 47.9077 42.7813 47.9077C41.9991 47.9077 41.3519 48.1356 40.8397 48.5915C40.3369 49.0381 39.9923 49.7173 39.8061 50.6291L39.0657 54.3554H38.074ZM46.6071 54.4252C45.9087 54.4252 45.2988 54.2995 44.7773 54.0483C44.2651 53.7878 43.8693 53.425 43.59 52.9598C43.3199 52.4946 43.1849 51.941 43.1849 51.299C43.1849 50.4616 43.3618 49.7173 43.7157 49.066C44.0695 48.4147 44.5538 47.903 45.1684 47.5309C45.783 47.1494 46.4768 46.9587 47.2497 46.9587C47.9015 46.9587 48.4649 47.0843 48.9398 47.3355C49.4148 47.5774 49.7826 47.9309 50.0433 48.3961C50.3134 48.8613 50.4484 49.4196 50.4484 50.0709C50.4484 50.2197 50.4391 50.3732 50.4205 50.5314C50.4019 50.6803 50.3786 50.8245 50.3506 50.964H43.9112L44.0369 50.2244H49.8897L49.4846 50.5035C49.5777 49.9173 49.5358 49.4242 49.3589 49.0242C49.182 48.6241 48.9072 48.3217 48.5348 48.117C48.1716 47.903 47.7339 47.796 47.2217 47.796C46.6257 47.796 46.0949 47.9449 45.6293 48.2426C45.1637 48.531 44.8005 48.9358 44.5398 49.4568C44.2791 49.9685 44.1487 50.5686 44.1487 51.2571C44.1487 51.9921 44.3582 52.5597 44.7773 52.9598C45.2056 53.3505 45.8435 53.5459 46.6909 53.5459C47.1845 53.5459 47.6408 53.4668 48.0598 53.3087C48.4789 53.1412 48.8234 52.9132 49.0935 52.6248L49.5405 53.3366C49.1959 53.6808 48.7629 53.9506 48.2414 54.146C47.7293 54.3321 47.1845 54.4252 46.6071 54.4252ZM54.5652 54.4252C53.9413 54.4252 53.3872 54.2995 52.903 54.0483C52.4188 53.7971 52.0416 53.4389 51.7716 52.9737C51.5015 52.5085 51.3665 51.9549 51.3665 51.3129C51.3665 50.6896 51.4689 50.1127 51.6738 49.5824C51.8786 49.0521 52.1673 48.5915 52.5398 48.2007C52.9123 47.8007 53.35 47.4936 53.8528 47.2796C54.365 47.0657 54.9191 46.9587 55.5151 46.9587C56.1576 46.9587 56.7024 47.075 57.1494 47.3076C57.5964 47.5309 57.9409 47.8611 58.183 48.2984C58.4252 48.7264 58.5462 49.2475 58.5462 49.8615C58.5462 50.5221 58.4531 51.1315 58.2669 51.6898C58.0899 52.248 57.8245 52.7318 57.4707 53.1412C57.1168 53.5506 56.6931 53.8669 56.1995 54.0902C55.7153 54.3135 55.1705 54.4252 54.5652 54.4252ZM54.7748 53.5459C55.3894 53.5459 55.9341 53.4017 56.4091 53.1133C56.8933 52.8156 57.2705 52.4062 57.5405 51.8851C57.8199 51.3641 57.9596 50.7733 57.9596 50.1127C57.9596 49.387 57.7454 48.8241 57.317 48.424C56.898 48.024 56.3066 47.8239 55.543 47.8239C54.9377 47.8239 54.393 47.9728 53.9087 48.2705C53.4245 48.5683 53.0427 48.9776 52.7633 49.4987C52.4933 50.0104 52.3582 50.6012 52.3582 51.2711C52.3582 51.9875 52.5677 52.5457 52.9868 52.9458C53.4152 53.3459 54.0112 53.5459 54.7748 53.5459ZM57.1913 54.3554L57.6103 52.248L58.0294 50.7687L58.1691 49.2335L59.2167 44H60.2085L58.1411 54.3554H57.1913ZM64.063 54.3554L66.1303 44H67.1221L66.0884 49.1498L65.6414 50.6012L65.4738 52.0247L65.0128 54.3554H64.063ZM68.1417 54.4252C67.5085 54.4252 66.9637 54.3135 66.5074 54.0902C66.0604 53.8576 65.7159 53.5273 65.4738 53.0993C65.241 52.662 65.1199 52.1364 65.1106 51.5223C65.1106 50.8524 65.2037 50.2383 65.39 49.6801C65.5762 49.1218 65.8416 48.6427 66.1862 48.2426C66.54 47.8332 66.9591 47.5169 67.4433 47.2936C67.9369 47.0703 68.4863 46.9587 69.0916 46.9587C69.7248 46.9587 70.2789 47.0843 70.7538 47.3355C71.2381 47.5774 71.6152 47.9309 71.8853 48.3961C72.1646 48.8613 72.3043 49.4149 72.3043 50.0569C72.3043 50.6896 72.2019 51.2711 71.997 51.8014C71.7922 52.3317 71.4988 52.7923 71.117 53.1831C70.7445 53.5738 70.3068 53.8809 69.804 54.1042C69.3011 54.3182 68.747 54.4252 68.1417 54.4252ZM68.1278 53.5459C68.7424 53.5459 69.2871 53.4017 69.7621 53.1133C70.237 52.8156 70.6095 52.4062 70.8795 51.8851C71.1589 51.3641 71.2986 50.7733 71.2986 50.1127C71.2986 49.387 71.0891 48.8241 70.67 48.424C70.251 48.024 69.655 47.8239 68.8821 47.8239C68.2768 47.8239 67.732 47.9728 67.2478 48.2705C66.7728 48.5683 66.3957 48.9776 66.1163 49.4987C65.8463 50.0104 65.7112 50.6012 65.7112 51.2711C65.7112 51.9875 65.9208 52.5457 66.3398 52.9458C66.7589 53.3459 67.3549 53.5459 68.1278 53.5459ZM72.6993 57.1326C72.3548 57.1326 72.0242 57.0722 71.7076 56.9512C71.3909 56.8395 71.1395 56.6814 70.9533 56.4767L71.4841 55.751C71.6424 55.9184 71.8286 56.0487 72.0428 56.1417C72.257 56.2348 72.4991 56.2813 72.7692 56.2813C73.0858 56.2813 73.3745 56.1929 73.6352 56.0161C73.9053 55.8487 74.1846 55.5416 74.4733 55.095L75.2136 53.9646L75.3393 53.825L79.6975 47.0284H80.7172L75.3533 55.3044C75.046 55.7696 74.7573 56.1324 74.4873 56.393C74.2172 56.6628 73.9379 56.8535 73.6492 56.9652C73.3698 57.0768 73.0532 57.1326 72.6993 57.1326ZM75.046 54.5647L73.1603 47.0284H74.166L75.8143 53.7553L75.046 54.5647Z" fill="white"/>
<mask id="mask0_1862_906" style="mask-type:luminance" maskUnits="userSpaceOnUse" x="87" y="45" width="71" height="11">
<path d="M158 45.0759H87.0316V55.9306H158V45.0759Z" fill="white"/>
</mask>
<g mask="url(#mask0_1862_906)">
<path fill-rule="evenodd" clip-rule="evenodd" d="M99.5898 55.9325H102.628V45.0772H99.5898V55.9325ZM103.37 55.9325H106.408L106.401 50.1683C106.401 50.1683 107.245 51.4909 108.398 53.0602L110.495 55.9325H112.47C114.68 55.933 115.045 55.905 115.822 55.8268C116.456 55.763 117.23 55.5953 117.777 55.403C118.453 55.1652 119.021 54.8556 119.524 54.4512C119.609 54.3826 119.719 54.2823 119.829 54.1735C119.864 54.1395 119.898 54.1047 119.932 54.0698C120.072 53.9264 120.203 53.781 120.276 53.6824C120.492 53.3902 120.685 53.0573 120.857 52.6794C120.999 52.3679 121.079 52.1335 121.173 51.7565C121.218 51.5727 121.263 51.4083 121.272 51.3912C121.276 51.3846 121.279 51.3795 121.282 51.3762C121.308 51.3509 121.332 51.4202 121.386 51.6559C121.49 52.1111 121.598 52.4154 121.794 52.8041C122.029 53.2722 122.33 53.6868 122.719 54.0786C123.472 54.838 124.3 55.2932 125.48 55.5966C126.18 55.7769 126.679 55.868 127.355 55.9112C127.677 55.9407 129.562 55.9407 129.852 55.9112C130.182 55.8838 130.49 55.8166 130.741 55.7629C131.003 55.7067 131.175 55.6403 131.77 55.3641C132.756 54.9069 133.357 54.443 133.971 53.8346C134.132 53.6747 134.294 53.5047 134.464 53.3223C134.922 52.7704 135.726 51.705 136.121 51.126C136.751 50.2018 137.066 49.7563 137.328 49.44C137.448 49.2945 137.558 49.1764 137.682 49.0516C137.732 49.0007 137.788 48.947 137.847 48.8925C138.057 48.6985 138.306 48.4945 138.482 48.3754C138.915 48.0815 139.372 47.9415 140.115 47.8758C140.401 47.8505 141.706 47.8503 141.983 47.8756C142.77 47.9473 143.206 48.1066 143.546 48.4469C143.799 48.7 143.939 48.9891 144.021 49.423L144.047 49.5634L143.946 49.5634C143.33 49.5633 140.989 49.6157 140.707 49.6359C140.293 49.6654 139.972 49.7312 139.551 49.8727C138.954 50.0734 138.481 50.3476 138.129 50.6995C137.681 51.1474 137.427 51.7213 137.363 52.4294C137.31 53.0045 137.412 53.5689 137.661 54.0784C137.823 54.4106 138.002 54.6599 138.265 54.9163C138.785 55.4248 139.403 55.7367 140.158 55.8463C140.743 55.9478 141.757 55.9608 142.126 55.8794C142.64 55.7874 143.174 55.5759 143.453 55.3628C143.581 55.2641 143.725 55.1359 143.854 55.0088C144.023 54.8411 144.167 54.6754 144.215 54.5824C144.235 54.5428 144.237 54.5949 144.237 55.227L144.237 55.9325H147.675V52.5514C147.675 48.941 147.677 49.0496 147.603 48.588C147.418 47.4257 146.856 46.6 145.793 45.9302C145.519 45.7573 145.14 45.5559 144.963 45.4887C144.13 45.1721 143.21 45.0626 141.227 45.0772C140.355 45.0836 140.266 45.1002 139.707 45.1858C138.633 45.3503 137.734 45.6908 136.912 46.2442C136.685 46.3971 136.5 46.5356 136.284 46.7182C136.179 46.8067 136.067 46.9056 135.941 47.0215C135.876 47.08 135.808 47.1429 135.736 47.2109C135.64 47.3002 135.553 47.3832 135.471 47.465C135.031 47.9041 134.733 48.3041 133.985 49.4061C133.272 50.4572 132.953 50.9718 132.439 51.4804C132.342 51.5974 132.242 51.7071 132.139 51.8097C131.305 52.6434 130.278 53.0141 128.93 53.0383C128.795 53.0408 128.524 53.0383 128.227 53.0383C127.244 53.0546 126.597 52.9623 126.159 52.7897C125.756 52.6305 125.435 52.3635 125.181 51.9757C125.045 51.7671 124.901 51.4922 124.886 51.4105L124.877 51.3637L127.443 51.3636C129.072 51.3636 130.066 51.3583 130.165 51.349C130.764 51.293 131.222 51.1065 131.539 50.7898C131.737 50.5921 131.88 50.3437 131.967 50.0446C132.044 49.7854 132.063 49.6239 132.061 49.2538C132.059 48.8588 132.038 48.6835 131.958 48.4185C131.747 47.7146 131.424 47.1255 130.99 46.6537C130.186 45.7777 129.103 45.2659 127.662 45.1055C127.319 45.0674 126.235 45.0689 126 45.1055C124.879 45.2762 123.887 45.7249 123.075 46.4048C122.959 46.5018 122.848 46.6035 122.742 46.7095C122.094 47.357 121.632 48.1631 121.429 49.0127C121.341 49.3792 121.324 49.4417 121.303 49.4841C121.295 49.5005 121.29 49.5103 121.286 49.5144C121.28 49.5203 121.276 49.5143 121.27 49.4985C121.263 49.4827 121.219 49.3143 121.173 49.1241C121.009 48.4602 120.839 48.0531 120.52 47.5619C120.291 47.2107 120.06 46.938 119.698 46.5952C119.41 46.3216 119.264 46.1947 119.065 46.0459C118.298 45.4708 117.349 45.1712 116.065 45.0992C115.902 45.0901 114.783 45.0772 113.144 45.0772H110.484V48.3097L110.481 51.535L106.408 45.0772H103.37V55.9325ZM152.896 45.089C151.796 45.148 150.69 45.4876 149.897 46.0155C149.702 46.145 149.508 46.3057 149.335 46.4782C149.17 46.6424 149.024 46.8173 148.913 46.9863C148.604 47.4563 148.47 48.0109 148.492 48.74C148.513 49.47 148.674 49.9468 149.071 50.456C149.389 50.8619 149.855 51.1562 150.507 51.3613C151.005 51.5184 151.473 51.6154 152.496 51.7744C153.799 51.9767 154.268 52.1038 154.472 52.3094C154.56 52.3983 154.584 52.471 154.576 52.627C154.568 52.7809 154.53 52.8656 154.425 52.965C154.292 53.0909 154.082 53.1705 153.744 53.2237C153.504 53.2614 152.817 53.2767 152.502 53.2513C151.519 53.172 150.391 52.8796 149.502 52.4739C149.413 52.433 149.334 52.4047 149.329 52.4109C149.301 52.4417 148.246 54.869 148.255 54.879C148.278 54.9018 148.841 55.1563 149.066 55.2452C149.51 55.4208 150.081 55.5919 150.673 55.726C151.43 55.8976 151.625 55.9325 152.853 55.9325C153.922 55.9325 154.344 55.89 154.828 55.7689C155.328 55.6441 156.09 55.3162 156.508 55.046C156.749 54.8895 156.96 54.7212 157.143 54.5397C157.649 54.0339 157.925 53.4261 157.99 52.6886C158.018 52.354 157.987 51.9508 157.908 51.6342C157.721 50.8819 157.24 50.3135 156.469 49.9311C155.863 49.6312 155.357 49.5075 153.695 49.2539C152.674 49.0983 152.294 48.9873 152.072 48.78C151.848 48.5701 151.846 48.3525 152.067 48.1059C152.226 47.9287 152.453 47.8197 152.767 47.7705C152.974 47.738 153.494 47.7271 153.873 47.7473C154.761 47.7947 155.263 47.9091 156.064 48.2462C156.248 48.3233 156.436 48.4013 156.484 48.4195L156.571 48.4525L157.109 47.2006C157.404 46.512 157.647 45.941 157.649 45.9318C157.652 45.9149 157.218 45.7422 156.82 45.6025C156.075 45.3407 155.016 45.1523 153.93 45.0949C153.682 45.0772 153.123 45.0689 152.896 45.089ZM115.544 47.5616C116.097 47.5964 116.384 47.6687 116.828 47.8855C117.371 48.1502 117.733 48.5046 117.977 49.0089C118.174 49.4157 118.269 49.832 118.286 50.3555C118.311 51.1626 118.089 51.8573 117.628 52.4117C117.587 52.4618 117.543 52.5097 117.497 52.5558C117.327 52.7251 117.127 52.8682 116.882 52.9945C116.307 53.2922 115.962 53.3358 114.186 53.3364L113.426 53.3367V47.5471L114.371 47.5472C114.891 47.5472 115.419 47.5537 115.544 47.5616ZM127.277 47.7277C127.741 47.7975 128.024 47.9346 128.344 48.2456C128.677 48.5685 128.891 48.9448 128.965 49.3379L128.985 49.4482H124.821L124.831 49.4014C124.876 49.1925 125.073 48.7575 125.234 48.5121C125.292 48.4241 125.36 48.3407 125.438 48.2632C125.651 48.0502 125.933 47.8812 126.25 47.7803C126.368 47.7428 126.437 47.7285 126.642 47.6994C126.726 47.6876 127.129 47.7056 127.277 47.7277ZM144.037 51.7849C144.037 52.3775 143.993 52.5652 143.795 52.8293C143.734 52.9113 143.663 52.9919 143.589 53.0662C143.455 53.2005 143.308 53.3145 143.182 53.3796C142.739 53.6065 141.983 53.6454 141.53 53.4646C141.218 53.34 141.014 53.103 140.948 52.7894C140.913 52.6241 140.926 52.3296 140.976 52.1763C141.018 52.0447 141.083 51.9348 141.174 51.844C141.308 51.7099 141.498 51.6175 141.755 51.5593C141.918 51.5224 142.27 51.5044 143.032 51.494C143.44 51.4885 143.833 51.4828 143.905 51.4814L144.037 51.4789L144.037 51.7849Z" fill="white"/>
<path fill-rule="evenodd" clip-rule="evenodd" d="M136.447 52.6041L136.371 52.7195C136.103 53.1316 135.663 53.6695 135.254 54.087C135.12 54.2233 134.944 54.3925 134.749 54.5729C134.558 54.7491 134.35 54.936 134.148 55.113C133.933 55.3019 133.723 55.4796 133.548 55.6214C133.458 55.6948 133.376 55.7586 133.308 55.8092L133.226 55.8658L133.117 55.9306H136.447L136.447 52.6041Z" fill="white"/>
<path fill-rule="evenodd" clip-rule="evenodd" d="M133.117 48.4024L133.192 48.287C133.461 47.8749 133.901 47.337 134.31 46.9195C134.444 46.7832 134.62 46.6139 134.815 46.4336C135.006 46.2574 135.213 46.0705 135.416 45.8935C135.631 45.7046 135.841 45.5268 136.016 45.3851C136.106 45.3117 136.188 45.2479 136.256 45.1972L136.338 45.1407L136.447 45.0759H133.117L133.117 48.4024Z" fill="white"/>
<mask id="mask1_1862_906" style="mask-type:luminance" maskUnits="userSpaceOnUse" x="87" y="45" width="11" height="11">
<path d="M97.3987 45.5759V55.4333H87.5316V45.5759H97.3987Z" fill="white" stroke="white"/>
</mask>
<g mask="url(#mask1_1862_906)">
<mask id="mask2_1862_906" style="mask-type:luminance" maskUnits="userSpaceOnUse" x="87" y="45" width="11" height="11">
<path d="M97.3987 45.5759V55.4333H87.5316V45.5759H97.3987Z" fill="white" stroke="white"/>
</mask>
<g mask="url(#mask2_1862_906)">
<path d="M97.3987 45.5759V55.4333H87.5316V45.5759H97.3987Z" stroke="white"/>
<path fill-rule="evenodd" clip-rule="evenodd" d="M97.8987 45.0759L97.6534 45.4525C96.777 46.7976 95.3422 48.5532 94.0056 49.9161C93.5692 50.361 92.9928 50.9134 92.3569 51.502C91.7353 52.0773 91.0569 52.6871 90.3969 53.2649C89.6925 53.8816 89.009 54.4618 88.4381 54.9244C88.1423 55.1641 87.8767 55.3722 87.6541 55.5375L87.3849 55.7221L87.0316 55.9336H97.8988L97.8987 45.0759Z" fill="white"/>
<path fill-rule="evenodd" clip-rule="evenodd" d="M87.0317 55.9336L87.277 55.557C88.1534 54.2119 89.5881 52.4563 90.9248 51.0934C91.3611 50.6485 91.9375 50.0961 92.5734 49.5075C93.195 48.9322 93.8734 48.3224 94.5334 47.7446C95.2378 47.1279 95.9213 46.5477 96.4923 46.0851C96.7881 45.8454 97.0536 45.6373 97.2763 45.4719L97.5454 45.2874L97.8988 45.0759H87.0316L87.0317 55.9336Z" fill="white"/>
</g>
</g>
</g>
</svg>
