<svg width="49" height="16" viewBox="0 0 49 16" fill="none" xmlns="http://www.w3.org/2000/svg">
<path d="M45.3699 15.7691L44.9105 13.4495H39.7778L38.9611 15.7526L34.8472 15.7608C37.4918 9.34296 39.4545 4.589 40.7353 1.49897C41.0702 0.690722 41.6643 0.278352 42.5402 0.284537C43.2098 0.290035 44.3028 0.290721 45.8191 0.286598L49 15.7629L45.3699 15.7691ZM40.9313 10.2722H44.2409L43.0057 4.45773L40.9313 10.2722ZM14.4183 0.282474L18.5547 0.286598L12.1602 15.7711L7.97271 15.767C6.91972 11.6769 5.87982 7.58345 4.85304 3.4866C4.64888 2.6701 4.24463 2.09897 3.46675 1.82887C2.77122 1.58832 1.61564 1.21649 0 0.713401V0.286598H6.60888C7.75221 0.286598 8.41983 0.845362 8.63421 1.99175C8.85063 3.14089 9.39507 6.06461 10.2675 10.7629L14.4183 0.282474ZM24.2387 0.286598L20.97 15.7691L17.0316 15.7629L20.2942 0.282474L24.2387 0.286598ZM32.2216 0C33.3996 0 34.8839 0.371133 35.7373 0.713401L35.0473 3.92165C34.2755 3.60825 33.0056 3.18557 31.9378 3.2C30.3861 3.2268 29.4265 3.88454 29.4265 4.51546C29.4265 5.54227 31.0925 6.05979 32.8075 7.18144C34.7635 8.45979 35.0228 9.60825 34.9983 10.8577C34.9717 13.4454 32.8075 16 28.2424 16C26.1599 15.9691 25.4085 15.7938 23.7099 15.1835L24.4285 11.8351C26.1578 12.5649 26.8908 12.7979 28.369 12.7979C29.7226 12.7979 30.8843 12.2454 30.8945 11.2825C30.9027 10.5979 30.4862 10.2577 28.9672 9.41237C27.4482 8.56701 25.3167 7.39381 25.3452 5.03711C25.38 2.02268 28.2077 0 32.2216 0Z" fill="white"/>
</svg>
